<?xml version="1.0" encoding="UTF-8"?>
<svg xmlns="http://www.w3.org/2000/svg" version="1.1" viewBox="4.69 25.87 175.33 175.33" shape-rendering="geometricPrecision" text-rendering="geometricPrecision">
  <defs>
    <style>
      .st1 { fill: #009aa3; }
      .st3 { fill: #0e3b5f; }
      .st4 { fill: #93c01f; }
    </style>
  </defs>
  <!-- Plant stem / wheat stalks (dark navy) -->
  <path class="st3" d="M51.7,92.2c-13.7,5.8-28,9.5-42.6,10.4-1.5,0-2.8-.8-3.3-1.8s0-2.7,1.5-3.5c11.8-7.1,24.1-12.9,37.3-17,1.7-.5,4.9-1.3,5.9.3,1.7,2.5,1.9,5.8,3,8.7.5,1.3-.5,2.4-1.9,3"/>
  <path class="st3" d="M108,104.5l-4.4-3.6c-6.5-5.3-12.8-10.5-19.8-15.1-.9-.6-3.2-1.4-3.8-.4l-5.6,9c3.4,3.6,8,7,13.1,10.1h20.6,0Z"/>
  <path class="st3" d="M75.9,67.2c-.5,5.6-8.9,3.6-12.1,2.5-2.2-.8-2.8-2.6-2.4-4.9,2.1-12.8,5.8-25,10.3-37.1.4-1.2,1.5-2,2.4-1.8.7.1,1.9,1.1,2,2.3,1.2,13,.9,26-.3,39.1"/>
  <path class="st3" d="M75.9,84.6c-.8,5.7-6,9.6-11.7,8.8-5.7-.8-9.6-6-8.8-11.7s6-9.6,11.7-8.8c5.7.8,9.6,6,8.8,11.7"/>
  <polygon class="st3" points="54.8 117.3 26.8 117.3 31.1 107.1 58.9 107.1 54.8 117.3"/>
  <polygon class="st3" points="87.6 117.3 59.7 117.3 63.8 107.1 91.6 107.1 87.6 117.3"/>
  <polygon class="st3" points="120.5 117.3 92.6 117.3 96.5 107 124.4 107 120.5 117.3"/>
  <path class="st3" d="M49.1,130.3l4.3-9.8h-28l-4.4,9.8h28.1ZM82.2,130.3l4.1-9.8h-28l-4.3,9.8h28.2ZM119.2,120.5h-28l-4.1,9.8h28.1l4-9.8Z"/>
  <polygon class="st3" points="43.1 144.9 14.8 144.9 19.7 133.9 47.8 133.9 43.1 144.9"/>
  <path class="st3" d="M80.9,133.9h-28.1l-4.2,9.7c4.3-1.9,9.5-3.7,13.6-3.9,3.9-.1,6.5,2.8,7.9,5.2h6.1l4.6-11h0Z"/>
  <path class="st3" d="M113.2,135.9l.8-2h-28.1l-4.6,11h22.6c2.4-2.9,6.7-7.6,9.4-9.1"/>
  <!-- Teal wave / DNA organic shape -->
  <path class="st1" d="M156,101.4c10.1.8,11.8-12.6,18.1-5.6,3.7,4.1,3.9,10,.7,14.5-.7,1-3,2.5-4.1,2.6-5.3.5-5.8-7.5-13.6-7.5s-9.2,8.2-17.1,8.7c-3.2.2-7.3-1.9-9-4.4-4-5.8-1.5-11.3,2.7-15.6,6.1-6.1,3.9-15.4-2-20.9-3.9-3.6-8-5.6-13.4-5.7-4.9,0-8.7,3-12.8,6.2-4,3.1-10.2,1.8-13.1-.6-4.3-3.4-5.8-9.3-1.5-13.4,2.7-2.6,5.4-5.1,6.3-8.5,2.8-10.1-11.7-11.2-6.6-17.6,4.9-6,16.1-4.3,18.7,1.4,2.3,5.1-8.1,6.3-7.7,14,.2,3.8,2.5,7,5.3,9.6,7.8,7.1,17.7,6.6,25.3.2,4.4-3.7,10.7.8,13.8,3.8,2.6,2.5,5.9,3.8,8.9,4.4,3.3.7,6.5-3.3,9.6-3.6,6.7-.7,11.5,9.8,8.5,14.5-5.5,8.4-11.4-12.5-23.7-6.7-4.7,2.2-7.8,7.4-8,11.5-.4,8.9,7.3,18,14.6,18.6"/>
  <path class="st1" d="M141.9,42.5c-4.2,6.1-15.5,1-17.1-5.3-.6-2.4,2.8-4.7,5.5-4.5,4.8.4,12.8,4,11.5,9.8"/>
  <!-- Ground / roots (green) -->
  <path class="st4" d="M36.4,172c-4.6-.2-8.7,1.2-13.1,2.5,6.5-12,16.5-21.3,28.5-26.9,3.2-1.5,6.4-2.4,9.8-2.8,1.7-.2,3.3.6,4,2.2,1.8,4,4.5,7.3,8.2,9.8,6.4,4.2,14.2,8.3,21.7,10.2-.5-2.1-.4-4.1-.2-6.1-2.1-3.2-4.4-6.2-5.5-10.2,3.6.5,6.8,2.7,8.7,5.9,2.3-1.8,4.9-2.7,7.9-2.4,0-2,.3-3.7,1.1-5.4.9-1.5,1.9-2.8,3.1-4,1.3,3.6,1,7.2.3,10.9,1.5,1.5,2.3,3.3,3.1,5.2,5.7-6.4,10.2-13.4,13.5-21.1,3.4-7.9.7-12.5,2.3-14.7,2.5-3.4,10.5-4.5,14.5-4.7,11.4-.7,24.8,1.7,34.8,8.2-9.2.7-16.9,5.8-20.6,14.1-2.5,5.3-1.4,12.1.5,17.6-10.4-2.5-20.7-.4-25.7,9.7-1.6,3.1-2.4,6.5-1.6,10.1-2.8-1.5-5.8-1.1-8.1,1.1-4.9,4.6-6.9,13.4-8.4,20-4.2-4.5-10.6-10-16.5-11.5-3.6-.9-6.7.9-8,4.4-1.8-6.1-8.9-10.5-14.7-11.2-7.6-.8-13.6,3.7-18.9,8.7-3-10.5-8.7-19.2-20.7-19.4"/>
</svg>
