<svg xmlns="http://www.w3.org/2000/svg" viewBox="0 0 83.04 80.7"><path fill="#10244c" fill-rule="evenodd" d="m3.17 37.26 2.63.03s.06.03.06.07v1.12s-.04.07-.08.07l-2.7-.03c-.44 0-.7.26-.7.67 0 .42.24.68.68.68l2.7.03s.06.03.06.07v1.12s-.04.07-.08.07l-2.63-.03c-1.15-.01-1.75-.76-1.76-1.89v-.07c.01-1.19.63-1.94 1.8-1.93Zm2.73 5.83s.07.02.07.06l.16 1.04c0 .05 0 .1-.05.13l-2.24 1.84v.03l2.47-.38c.04 0 .07.02.08.06l.15.99s-.01.08-.05.08l-4.22.65s-.07-.02-.08-.06l-.16-1.04s0-.1.05-.13l2.23-1.82v-.04l-2.46.38c-.04 0-.07-.02-.07-.06l-.15-.99s.01-.07.05-.08l4.22-.65Zm1.1 5.8s.07 0 .08.05l.31 1.08s0 .08-.04.09l-4.1 1.18s-.07 0-.08-.05l-.31-1.08s0-.08.04-.09zm-2.5 6.05s-.01-.08.02-.11l3.3-3.12s.07-.02.09.03l.47 1.08s.01.08-.02.11l-2.09 1.85v.02l2.78-.28c.05 0 .08.01.1.06l.46 1.08s0 .08-.04.08l-4.53.25s-.08-.01-.1-.06l-.43-1Zm5.86 2.24s.07 0 .09.03l1.69 2.72s.02.08-.02.1l-.71.44s-.07.01-.09-.03l-1.04-1.67s-.03-.03-.06-.02l-.57.35s-.02.03-.01.06l.85 1.37s.02.07-.02.09l-.69.43s-.07 0-.09-.03l-.85-1.37s-.03-.03-.06-.02l-.6.37s-.03.03-.01.06l1.04 1.67s.02.08-.02.1l-.71.44s-.07 0-.09-.03L6.7 59.53s-.02-.08.02-.1l3.62-2.25Zm3.47 7.14c.22-.19.21-.47-.02-.74l-.44-.51s-.04-.02-.06 0l-.65.56s-.02.04 0 .06l.44.51c.23.27.51.32.73.13Zm-2.21 1.99s-.04-.08-.02-.12l.66-1.54-.3-.36s-.04-.02-.06 0l-1.11.95s-.07.02-.1-.01l-.73-.85s-.03-.07 0-.1l3.24-2.78s.07-.02.1.01l1.29 1.51c.73.85.7 1.72.07 2.26-.42.36-.94.43-1.46.19l-.69 1.77s-.06.05-.09.01l-.81-.94Zm2.8 2.14s.01-.08.06-.08l.94-.1s.08.02.08.06c.07.37.29.82.66 1.14.35.29.63.32.79.13.12-.14.1-.33-.23-.68l-.18-.19c-.72-.79-.88-1.48-.35-2.11.53-.62 1.43-.58 2.27.13.51.44.87.99 1.02 1.5.01.04 0 .07-.05.08l-.87.19s-.07-.01-.09-.05c-.13-.38-.33-.71-.62-.96-.27-.23-.51-.23-.65-.07-.13.15-.09.34.24.69l.18.19c.73.8.87 1.48.33 2.11-.53.62-1.44.63-2.44-.22-.61-.52-1.02-1.27-1.09-1.75Zm6.95.69s.06-.04.1-.01l.94.62s.05.06.02.09l-2.34 3.57s-.06.04-.1.02l-.94-.62s-.05-.06-.02-.09l2.34-3.57Zm1.83 6.12h-.02s-.02-.02-.02-.04v-.05l1.46-2.94c0-.02 0-.04-.01-.05s-1.08-.54-1.08-.54h-.02s-.02-.02-.02-.03v-.02c0-.01 0-.03.01-.04l.39-.79s.05-.04.07-.04h.02l3.36 1.68c.02 0 .03.02.04.04v.05l-.39.79s-.02.03-.04.04h-.05l-1.08-.54h-.05v.02l-1.46 2.94v.02s-.03.02-.06.02c0 0-.02 0-.03-.01l-1.01-.5Zm6.8.97v-1.44h-.02l-.88 1.16.9.3Zm-.25-2.87s.06-.05.11-.03l1.11.37s.07.05.07.09l.24 4.57s-.03.06-.07.05l-1.13-.37s-.07-.05-.07-.09v-.72l-1.52-.5-.43.57s-.06.05-.11.03l-1.12-.37s-.05-.04-.03-.08l2.94-3.53Zm3.65 4.98s-.03-.08 0-.1l.75-.57s.08-.02.1 0c.25.28.67.55 1.16.63.45.07.71-.06.75-.3.03-.19-.09-.33-.55-.46l-.25-.07c-1.02-.3-1.52-.81-1.39-1.62s.92-1.24 2.01-1.07c.67.11 1.26.39 1.65.75.03.03.03.06 0 .1l-.64.61s-.07.03-.1 0c-.31-.26-.65-.44-1.03-.5-.35-.06-.56.07-.59.28-.03.19.11.34.56.46l.25.07c1.04.3 1.51.81 1.38 1.63-.13.8-.9 1.28-2.19 1.08-.79-.12-1.53-.55-1.85-.93Zm11.98-.52-.57-1.33h-.02l-.35 1.41.95-.08Zm-1.36-2.54s.04-.07.09-.07l1.17-.1s.08.02.1.06l2.03 4.11s0 .07-.05.07l-1.18.1s-.08-.02-.1-.06l-.29-.66-1.58.14-.17.7s-.04.07-.09.07l-1.17.1h-.02s-.05-.02-.04-.06zm4.57-.59s.01-.07.05-.08l1.09-.27s.08 0 .09.05l.8 3.18s.02.03.05.03l2.01-.5s.07 0 .08.05l.21.85s-.01.07-.05.08l-3.21.8s-.07 0-.08-.04L48.6 74.7Zm7.52 1.32.53-.22c.37-.15.48-.39.36-.69-.12-.28-.38-.38-.74-.22l-.53.22s-.04.03-.02.05l.35.84s.03.03.05.02m-.21-1.83c.35-.15.48-.36.36-.64-.12-.29-.35-.34-.71-.19l-.47.2s-.04.03-.03.05l.32.76s.03.03.05.02l.47-.2Zm-2.33-.87s0-.07.04-.09l1.84-.77c1.01-.42 1.65-.18 1.92.47a1 1 0 0 1-.19 1.1c.38-.01.82.2 1.02.67.33.79-.13 1.43-1.08 1.83l-1.82.76s-.08 0-.09-.03zm6.46-.03-1.38-2.24s0-.07.03-.09l.95-.59s.08-.02.1.02l1.42 2.3c.23.37.6.45.94.23.36-.22.44-.57.21-.94l-1.42-2.3s0-.07.03-.09l.95-.59s.08-.02.1.02l1.38 2.24c.62.99.28 1.92-.71 2.53-1.01.62-1.97.51-2.59-.49Zm6.3-6.05c-.19-.22-.47-.21-.74.02l-.51.44s-.02.04 0 .06l.56.65s.04.02.06 0l.51-.44c.27-.24.32-.51.13-.73Zm1.98 2.2s-.08.04-.12.02l-1.54-.65-.35.31s-.02.04 0 .06l.95 1.1s.02.07-.01.1l-.85.73s-.07.03-.1 0l-2.79-3.23s-.02-.07.01-.1l1.51-1.3c.85-.73 1.71-.71 2.25-.08.36.42.43.94.19 1.45l1.77.68s.05.06.01.09l-.94.81Zm.93-3.91c-.46-.39-.64-.58-.82-.88-.38-.66-.2-1.44.36-2.1.58-.69 1.25-.91 1.86-.75.05.01.07.05.06.09l-.33.94s-.05.07-.09.07c-.29-.03-.5.04-.72.31-.21.25-.24.51-.11.73.08.14.22.28.62.62s.57.45.71.51c.25.09.5 0 .73-.26.21-.24.27-.51.15-.72a.9.9 0 0 0-.19-.22c-.02-.02-.04-.01-.06 0l-.34.41s-.07.04-.1.01l-.56-.47s-.03-.06 0-.1l1.13-1.34s.07-.04.1-.01l.26.22c.32.27.56.51.7.76.39.67.25 1.45-.32 2.13-.56.67-1.3.98-2.01.71-.33-.13-.55-.27-1.01-.66Zm1.96-5.89s-.04-.06-.02-.1l1.67-2.73s.06-.05.09-.03l.71.43s.04.06.02.1l-1.02 1.67s-.01.04 0 .06l.57.35s.04 0 .05-.02l.84-1.37s.06-.05.09-.03l.7.42s.04.06.02.09l-.84 1.37s-.01.04.01.06l.6.37s.04 0 .05-.02l1.02-1.67s.06-.05.09-.03l.71.43s.04.06.02.09l-1.67 2.73s-.06.05-.09.03l-3.64-2.22Zm2.59-4.49s-.05-.05-.03-.09l.4-.98s.06-.09.11-.09l2.87-.41v-.03l-2.29-.95c-.04-.01-.05-.05-.03-.09l.39-.93s.05-.06.09-.04l3.95 1.63s.05.05.03.09l-.41.98s-.06.08-.11.09l-2.86.4-.02.04 2.29.95s.05.05.03.09l-.38.93s-.05.06-.09.04l-3.95-1.63Zm5.7-4.36s-.08.02-.1-.02l-.51-.79s-.02-.08.02-.1c.3-.23.6-.63.72-1.11.11-.44 0-.71-.24-.77-.18-.04-.33.06-.5.51l-.09.24c-.38 1-.93 1.45-1.73 1.26s-1.17-1.01-.91-2.09c.16-.66.49-1.23.88-1.58.03-.03.07-.03.1 0l.56.69s.02.07 0 .1c-.28.29-.49.61-.58.99-.08.35.03.56.23.61.19.05.34-.08.5-.52l.09-.24c.38-1.01.93-1.44 1.74-1.25.79.19 1.21 1 .9 2.27-.19.78-.67 1.49-1.07 1.77Zm-2.51-6.55s-.06-.03-.05-.08l.13-1.11s.04-.07.07-.06l4.24.48s.06.04.05.08l-.13 1.11s-.03.07-.07.06zm4.1-3.1s-.07.04-.1 0l-.69-.64s-.03-.07 0-.1c.23-.3.43-.76.43-1.25 0-.45-.18-.69-.42-.69-.19 0-.31.14-.36.62l-.03.26c-.13 1.06-.55 1.64-1.37 1.65-.82 0-1.38-.7-1.39-1.8 0-.67.17-1.31.47-1.75.03-.04.06-.04.1-.02l.71.53s.04.07.02.1c-.2.35-.32.71-.32 1.1 0 .36.16.54.37.54.19 0 .32-.16.36-.63l.03-.26c.12-1.07.54-1.62 1.38-1.63.73 0 1.29.54 1.41 1.61v.79c-.07.65-.32 1.26-.58 1.56ZM7.32 28.72s-.05.05-.09.05l-4.53.16c-.06 0-.09-.03-.07-.08l.08-.24c.02-.06.04-.08.1-.08l3.97-.14-3.07-2.52c-.04-.04-.05-.06-.03-.12l.08-.24s.06-.06.1-.03l3.49 2.89s.05.06.03.1l-.08.23ZM4.7 23.56s-.05-.05-.03-.09l.11-.24s.05-.05.09-.04l3.88 1.78s.05.05.03.09l-.11.24s-.05.05-.09.04zm1.31-2.62s-.04-.06-.02-.09l.13-.23s.06-.05.09-.03l3.73 2.06s.04.06.02.09l-.13.23s-.06.05-.09.03zm4.59-.22s-.07 0-.08-.05l-.06-.25s.02-.08.05-.08c.37-.14.85-.42 1.17-.89.45-.64.43-1.24-.01-1.55-.35-.25-.77-.21-1.37.47l-.15.17c-.64.72-1.24.85-1.76.49-.63-.44-.67-1.2-.13-1.96.31-.44.73-.78 1.1-.93.04-.02.07 0 .08.04l.08.23s-.01.07-.05.09c-.4.2-.71.44-.94.79-.4.57-.35 1.1.07 1.4.37.26.79.16 1.34-.46l.15-.17c.66-.75 1.25-.87 1.79-.49.61.43.71 1.21.06 2.14-.37.52-.93.91-1.35 1.03Zm2.36-9.08s-.02-.07 0-.1l.2-.18s.08-.05.13-.03l4.23 1.02h.02l-2.43-2.68c-.03-.03-.02-.07 0-.1l.2-.18s.07-.03.1 0l2.87 3.15s.02.07 0 .1l-.21.19s-.07.05-.13.03l-4.22-1.04-.02.02 2.44 2.67s.02.07 0 .1l-.2.18s-.07.03-.1 0l-2.87-3.15Zm7.4-4.65c-.42-.3-.89-.3-1.39.04-.51.34-.69.78-.57 1.28.04.18.16.45.55 1.04.4.59.61.79.76.9.42.3.89.3 1.4-.04.5-.34.68-.77.56-1.27-.04-.18-.16-.45-.55-1.04-.4-.59-.6-.79-.75-.9Zm-.92 3.57c-.2-.14-.41-.35-.83-.98s-.54-.9-.59-1.14c-.17-.67.1-1.26.76-1.7s1.3-.46 1.86-.06c.2.14.41.35.83.98s.54.89.59 1.14c.16.67-.1 1.26-.75 1.7-.66.44-1.31.46-1.86.06Zm5.98-2.53s-.07 0-.1-.02L22 4.92c-.05-.04-.04-.08 0-.1l.23-.11c.06-.03.08-.03.13.01l2.91 2.71h.01l-.4-3.95c0-.05.01-.08.06-.1l.23-.11s.09 0 .09.06l.42 4.51s0 .08-.05.1l-.22.11Zm1.83-5.5s0-.07.05-.09l.25-.09s.08 0 .09.04l1.48 4s0 .07-.05.09l-.25.09s-.08 0-.09-.04zm3.62 2.82s-.05-.05-.03-.09l.12-.23s.06-.05.1-.03c.37.14.92.24 1.47.1.76-.19 1.14-.66 1.01-1.18-.11-.42-.45-.66-1.34-.54l-.22.03c-.95.13-1.49-.16-1.65-.79-.19-.74.28-1.35 1.19-1.57.24-.06.48-.09.7-.09h.05c.26 0 .49.04.69.11.04 0 .06.04.04.08l-.09.23s-.06.05-.09.04c-.43-.11-.82-.13-1.23-.02-.68.17-.99.61-.86 1.11.11.43.49.64 1.32.53l.22-.03c.99-.13 1.52.16 1.68.8.18.72-.26 1.38-1.36 1.66-.62.16-1.3.07-1.69-.1Zm29.31 47.3c-1.09-.49-2.23-.9-4.1-2.03-5.22-3.19-6.81-7.93-3.87-16.2 1.7-4.79 2.52-8.83 2.1-13.18l-.18-.12c-.27 5.47-2.29 8.87-5.91 14.63-7.66 12.2.12 21.14 3.81 23.92 3.26-1.64 6.05-4.07 8.15-7.03Z"/><path fill="#10244c" fill-rule="evenodd" d="M44.67 35.3c5.9-6.95 7.82-10.15 8.22-14.93-.06-.03-.13-.07-.19-.11-1.37 5.72-4.8 8.75-13.84 14.77-9.74 6.48-9.3 17.63-6.82 24.57a21.97 21.97 0 0 0 12.35 2.31c-7.03-10.67-6.54-18.59.27-26.61Z"/><path fill="#10244c" fill-rule="evenodd" d="M41.07 30.18c6.52-2.83 9.61-7.13 10.51-10.49-.06-.03-.12-.05-.17-.08-2.84 5.94-8.51 6.93-18.19 8.23-5.74.77-10.21 4.06-12.91 8.13-.22 1.24-.33 2.52-.33 3.83 0 5.29 1.85 10.15 4.92 13.97-.27-16.63 8.36-20.2 16.18-23.59Z"/></svg>