<svg xmlns="http://www.w3.org/2000/svg" viewBox="0 0 59.53 27.01"><path d="M23.88 17.59h2.01c.78 0 .94-.42.94-1.65 0-1.13-.09-1.73-1.04-1.73h-2.34v2.95c0 .28.16.43.43.43m1.73-5.34c.78 0 1.09-.5 1.09-1.42 0-1.14-.31-1.39-.92-1.39h-1.91c-.28 0-.43.16-.43.43v2.38zm-3.64-4.81h4.21c1.4 0 2.79.59 2.79 3.19s-1.79 1.93-1.79 2.52 1.89-.33 1.94 3.02c.03 2.6-1.25 3.42-2.83 3.42h-4.34c-.5 0-.78-.28-.78-.78V8.23c0-.5.28-.78.78-.78m12.99 10.33c1.18 0 1.79-.56 1.79-1.66v-5.2c0-1.11-.61-1.67-1.79-1.67s-1.79.56-1.79 1.67v5.2c0 1.11.61 1.66 1.79 1.66m0 2.08c-2.05 0-4.04-.94-4.04-3.31v-6.07c0-2.38 1.99-3.31 4.04-3.31s4.04.94 4.04 3.31v6.07c0 2.38-1.99 3.31-4.04 3.31M46.16 7.94c.17-.35.45-.5.83-.5h.88c.54 0 .75.35.5.82l-1.89 3.78c-.52 1.04-1.21.87-1.21 1.23s.69.14 1.27 1.23l2.22 4.25c.26.49.03.83-.5.83h-.95c-.38 0-.64-.17-.82-.5l-2.31-4.44c-.62-1.21-.54-1.65-.05-2.62zm-4.32-.5h.69c.5 0 .78.28.78.78V18.8c0 .5-.28.78-.78.78h-.69c-.5 0-.78-.28-.78-.78V8.22c0-.5.28-.78.78-.78m16.27.78v10.67c0 .45-.24.69-.69.69h-.23c-.38 0-.56-.24-.66-.59-.12-.42-.17-.57-.35-.57-.31 0-.29.52-1.02.97-.47.29-1.13.47-1.8.47-1.54 0-3.23-.88-3.23-3.49V8.22c0-.5.28-.78.78-.78h.69c.5 0 .78.28.78.78v7.98c0 1.3.75 1.67 1.72 1.67s1.75-.75 1.75-2.19V8.22c0-.5.28-.78.78-.78h.69c.5 0 .78.28.78.78"/><path d="M9.7 23.28c0-.45.24-.69.69-.69h1.17c.45 0 .69-.17.69-.69V5.11c0-.52-.24-.69-.69-.69h-1.17c-.45 0-.69-.24-.69-.69V2.11c0-.45.24-.69.69-.69h1.69c3.14 0 4.49 2.97 4.49 5.94 0 2.42-.86 4.56-2.49 5.53-.17.1-.28.28-.28.48 0 .17.1.38.28.48 1.48.97 2.49 2.94 2.49 5.7 0 3.07-1.21 6.04-4.14 6.04h-2.04c-.45 0-.69-.24-.69-.69zM4.94 4.97v16.92c0 .52.24.69.69.69h1.9c.45 0 .69.24.69.69v1.62c0 .45-.24.69-.69.69H3.66c-1.45 0-2.24-.79-2.24-2.24V3.66c0-1.45.79-2.24 2.24-2.24h3.87c.45 0 .69.24.69.69v1.62c0 .45-.24.69-.69.69H5.49c-.31 0-.55.24-.55.55" style="fill:#00aa5a"/></svg>