<svg xmlns="http://www.w3.org/2000/svg" id="Layer_1" viewBox="0 0 378 378"><defs><style>.st0{fill:#900}</style></defs><path d="m356.83 161.77 1.04-10.83h-17.52c-4.9 0-6.91-2.34-6.63-5.12.08-.84.12-1.29.24-1.73l-13.51-.05c-.39 4.07 1.75 6.63 6.21 7.47v.11h-5.94l-.86 10.16h36.97Zm2.99-31.03h-50.9l-1.04 10.75h50.9zm-38.38-14.5h-11.61l-1.11 10.83h11.62zm39.78 0h-36.63l-1.1 10.83h36.62l1.1-10.83Zm-60.89 112.72h31.28c11.96 0 19.81-6.83 20.7-16.47.77-8.29-5.47-15.83-18.06-15.83-9.38 0-19.38 5.98-20.15 14.28-.29 3.13.48 4.63 1.68 6.78h-14.53l-.91 11.25Zm38.25-62.2c3.39 2.28 5.48 7.14 5.18 10.27-.1 1.05-.37 2.44-.93 3.25l-12.71-15.55c-7.3 2.49-12.41 7.78-13.05 14.68-.8 8.58 5.97 15.66 18.5 15.66 10.09 0 19.02-6.67 19.9-16.07.52-5.69-.47-8.43-3.33-13.12l-13.58.87Zm-13.64-55.22h36.68l1.14-11.02h-21.63c-1.69 0-4.46-.53-4.46-2.78s2.32-2.89 3.79-2.89h22.82l1.05-10.94h-24.22c-7.07 0-13.61 2.69-14.13 8.43-.25 2.78 1.38 6.15 4.88 8.41l-.02.22h-4.83l-1.07 10.56ZM286.5 75.82h85l-15.75 163.51c-1.99 47.54-41.17 85.48-89.21 85.48l-4.02-.03zm46.15 141.9c-3.07 0-5.57-1.79-5.32-4.52.24-2.66 3.07-4.47 6.16-4.47s5.57 1.8 5.32 4.47c-.25 2.73-3.07 4.52-6.16 4.52m3.7-33.96c-.65.24-1.09.47-2.63.47-3.15 0-6.12-1.92-5.86-4.7.14-1.46.59-2.62 2.15-3.54zm-61.86-84.3-21.58 224.49c-48.03-8.4-80.39-33.3-76.05-79.85l-.03-.1 10.32-107.2H47.98C25.05 136.63 6.5 117.98 6.5 95s18.54-41.62 41.48-41.81h185.05c23.05.07 41.7 18.75 41.7 41.81 0 1.5-.09 2.99-.24 4.46" class="st0"/><path d="M91.58 146.06h76.35l-15.06 156.35H76.52z" class="st0"/></svg>