<svg xmlns="http://www.w3.org/2000/svg" id="Layer_1" viewBox="0 0 111.57 96.53"><defs><style>.st3{fill:#fff}</style></defs><path d="m50.25 3.53.67-.87 1.15-.14.86.68h5.71l.86-.68 1.14.14.68.87 5.55 1.36 1-.45 1.07.41.45 1 5.05 2.65 1.08-.2.95.65.2 1.09 4.27 3.78 1.09.07.77.86-.07 1.1 3.24 4.69 1.05.32.53 1.02-.32 1.05 2.02 5.34.94.57.28 1.11-.57.94.69 5.67.77.77v1.16l-.77.77-.69 5.66.57.94-.28 1.12-.94.57-2.02 5.34.33 1.04-.54 1.03-1.05.32-3.24 4.69.07 1.1-.77.86-1.09.07-4.27 3.78-.2 1.08-.94.66-1.08-.2-5.06 2.65-.45 1-1.07.41-1.01-.45-5.53 1.36-.68.87-1.14.14-.86-.68h-5.71l-.87.68-1.14-.14-.68-.87-5.54-1.36-1 .45-1.07-.41-.46-1-5.04-2.65-1.08.2-.95-.66-.2-1.08L30.64 62l-1.1-.07-.76-.86.06-1.1-3.23-4.68-1.05-.33-.54-1.02.33-1.05-2.03-5.34-.94-.56-.27-1.12.57-.94-.69-5.67-.78-.77v-1.16l.78-.77.69-5.66-.57-.94.27-1.12.94-.57 2.03-5.33-.33-1.05.53-1.02 1.05-.33 3.25-4.69-.07-1.1.76-.86 1.1-.07 4.27-3.78.19-1.08.95-.65 1.08.2 5.06-2.66.45-1 1.07-.41 1 .45z" style="fill:#ffd900"/><path d="m59.56 2.23-3.77 21.45-3.77-21.45m8.65.13L59.2 24.09 68 4.17m1 .39-6.63 20.75L75.68 8.07m.92.63L65.2 27.26l17-13.55m.74.83L67.5 29.83l19.8-9.08m.51 1L69.1 32.86l21.39-4.08m.27 1.09L69.92 36.2l21.75 1.16m0 1.11-21.75 1.12 20.87 6.37m-.27 1.07-21.39-4.07 18.66 11.13m-.51 1-19.8-9.08L82.99 61.3m-.74.83L65.23 48.59l11.4 18.56m-.92.63L62.4 50.51l6.63 20.75m-9.47 2.33-3.77-21.45-3.77 21.45m-1.11-.13 1.47-21.73-8.79 19.92m-1-.39 6.63-20.75-13.35 17.24m-.92-.63 11.4-18.53-17 13.56m-.73-.83L44.08 46l-19.8 9.08m-.51-1 18.71-11.12-21.39 4.07m-.3-1.07 20.87-6.37-21.75-1.12m0-1.11 21.75-1.16-20.87-6.33m.27-1.09 21.39 4.08-18.66-11.13m.51-1 19.8 9.08-15.53-15.22m.73-.83 17 13.55L34.95 8.7m.92-.63 13.31 17.24-6.63-20.72m1-.39 8.83 19.89-1.47-21.73M68 71.65l-8.8-19.92 1.47 21.73"/><path d="m79.35 10.99-2.69 3.1c.55.49 1.09 1 1.61 1.51l-.8.8a31 31 0 0 0-2.49-2.25l3.31-4.06m10.7 14.5-4.89 2c.15.37.31.77.44 1.14l4.95-1.76m2 9.07-4-.81 3.75-1.7-.23-1.38-5 2.44c.07.48.12.95.17 1.43l5.35 1.26m-1.62 12.38-1.26-.39c-.12.4-.26.81-.4 1.21l-3.71-1.33c-.13.37-.28.77-.43 1.14l3.68 1.48q-.24.615-.51 1.2l1.21.54m-2.83 5.15-4.39-2.92a22 22 0 0 1-.68 1l4.26 3.08m-3.83 4.48-.93-.94c-.29.31-.6.6-.92.89l-2.66-2.9c-.29.27-.61.55-.91.81l2.54 3-1 .83.82 1m-4.89 3.24-2.53-4.62c-.35.2-.72.39-1.07.57l2.34 4.72m-10 3.26-.21-1.3c.69-.12 1.37-.26 2.14-.43l-.22-.86c-.69.16-1.29.28-1.9.39l-.17-1c.58-.11 1.17-.23 1.83-.38l-.22-.88c-.71.17-1.34.29-2 .4l-.18-1.11c1-.18 2.05-.4 3.06-.68l.38 1.33c.55-.15 1.09-.33 1.63-.51l.27-1 .79 1.78-1 3.31m-.85-.8.56-2.09-1.11.32.49 1.79zM48 72.83l1.17-5.14-1.19-.29-1.37 5.08m-5.94-2.16 2.2-4.73c-1.03-.47-2.03-1-3-1.58l-.58 1q.945.57 1.92 1.08l-1.89 3.67m-6-4 3.31-4.07c-.87-.7-1.7-1.45-2.49-2.24l-.8.79c.52.53 1.06 1 1.61 1.51l-2.7 3.09m-6.63-7.7 4-1.16-2.53 3.25.86 1.1 3.14-4.53c-.28-.39-.55-.78-.81-1.18L24.95 56m-4.38-11.74 1.31-.24q-.12-.63-.21-1.26l3.9-.55c0-.39-.11-.81-.15-1.21l-3.91.4c0-.44-.09-.87-.11-1.3l-1.31.08m-.06-4.44 5.3.31c0-.41.06-.81.1-1.21l-2-.2v-.19c.07-.35.5-.62 1-.79s1.18-.36 1.18-.36c.07-.45.14-.9.25-1.36-.65.22-1.28.47-1.89.77-.26.12-.49.29-.69.5.04-.71-.5-1.32-1.21-1.37h-.04c-.92-.07-1.42.77-1.55 1.78h-.22m1.84-.43c.51.05.57.54.54.85s0 .39-.06.57l-1.27-.13v-.59c.09-.56.35-.78.77-.73zm0-7.34 4.3 3.8c.13-.44.26-.87.4-1.3l-.92-.76c.19-.56.4-1.12.63-1.67l1.2.06c.18-.43.38-.86.58-1.28l-5.68-.16m.81 1.05 2.07.17c-.15.37-.29.74-.43 1.11l-1.64-1.26zm6.78-12.71 3.76 3.71c.26-.27.52-.53.79-.78l-2.34-2.45 3.7 1.23c.35-.3.7-.58 1.06-.86l-3.14-4.21-1 .82 2.22 2.72-3.84-1.28m30-4c.45.29.95.51 1.47.65 1.1.27 2.2 0 2.5-1.17.16-.7 0-1.29-1.25-1.89-.54-.26-.64-.47-.6-.67s.36-.48 1-.33c.36.11.69.26 1 .47l.59-.83c-.45-.33-.95-.57-1.49-.71-.96-.37-2.03.11-2.4 1.07-.21.7.15 1.44.82 1.72.54.31 1.11.5 1 1s-.56.44-1 .35c-.38-.12-.75-.29-1.09-.5zm7.34-.39a2.748 2.748 0 1 0 3.73-1.09c-.01 0-.03-.02-.04-.02-1.21-.76-2.81-.4-3.57.82-.06.09-.11.19-.16.29zm1.21.63c.24-.73 1.03-1.13 1.77-.89a1.404 1.404 0 0 1 .67 2.19c-.52 1-1.31 1.16-2 .8s-.96-1.21-.6-1.9a.8.8 0 0 1 .12-.19h.04Zm16.45 31.81c-.24.48-.4 1-.47 1.54-.13 1.12.22 2.18 1.47 2.33.71.09 1.27-.2 1.72-1.46.19-.57.39-.7.59-.67s.52.3.45.93c-.06.35-.18.68-.34 1l.89.49c.27-.49.44-1.03.52-1.58.25-.99-.35-1.99-1.33-2.24h-.02c-.71-.13-1.41.3-1.6 1-.25.58-.36 1.16-.83 1.11s-.51-.5-.46-.91c.07-.39.19-.78.36-1.14zM27.79 50.45c-.01-.54-.12-1.07-.3-1.58-.4-1.06-1.21-1.83-2.39-1.38-.66.26-1 .77-.84 2.09.1.6 0 .8-.21.87s-.6 0-.82-.61c-.12-.35-.18-.71-.19-1.08h-1c-.02.56.08 1.12.27 1.64.34.9 1.21 1.75 2.23 1.35.72-.19 1.16-.91 1-1.64 0-.62-.22-1.2.22-1.36s.68.2.83.59c.12.38.18.77.2 1.16zm10.17-40.5c.68 1.36 2.33 1.9 3.69 1.22s1.9-2.33 1.22-3.69a2.745 2.745 0 0 0-3.69-1.22c-.01 0-.03.01-.04.02A2.6 2.6 0 0 0 38 9.95zm1.21-.64c-.47-.62-.34-1.51.28-1.97l.18-.12c.68-.36 1.47-.19 2 .81.46.62.34 1.5-.28 1.96a1.402 1.402 0 0 1-2.17-.68zm7.51-.67c.54.05 1.08.01 1.61-.1 1.1-.28 2-1 1.66-2.21-.17-.69-.64-1.11-2-1.08-.6 0-.79-.12-.83-.32s.09-.59.71-.75c.36-.07.73-.09 1.09-.05l.14-1c-.55-.08-1.11-.06-1.65.06-.94.24-1.89 1-1.63 2.06.14.72.8 1.22 1.53 1.14.62 0 1.21-.07 1.32.38s-.29.65-.69.75c-.38.07-.77.1-1.15.07zm9.11-2.44c.72 0 1.31-.58 1.31-1.31s-.58-1.31-1.31-1.31a1.29 1.29 0 0 0 0 2.57v.04Zm26.1 13.7a1.289 1.289 0 1 0 2.14-1.44c-.4-.59-1.2-.75-1.79-.35 0 0-.01 0-.02.01-.58.4-.72 1.2-.33 1.78m-27.38 51a1.29 1.29 0 1 0 0-.23zm-24.82-51c.41-.59.26-1.39-.33-1.79s-1.39-.26-1.79.33c-.41.59-.26 1.39.33 1.79.58.4 1.38.26 1.78-.32v-.01Z" class="st3"/><path d="M55.79 73.49c19.65 0 35.58-15.93 35.58-35.58S75.44 2.33 55.79 2.33 20.21 18.26 20.21 37.91s15.93 35.58 35.58 35.58" style="fill:none"/><path d="M60.67 42.79c-.42.42-.99.66-1.58.66h-1.3c-.7 0-1.36.33-1.77.89h-.48a2.17 2.17 0 0 0-1.75-.89h-1.3c-1.22 0-2.2-.98-2.21-2.2V32.4" style="fill:#fc0019"/><path d="M50.28 32.4h11v8.85c0 .58-.23 1.13-.63 1.54" class="st3"/><path d="M61.87 41.22a2.77 2.77 0 0 1-2.77 2.77h-1.31c-.66 0-1.25.39-1.51 1h-1c-.25-.61-.85-1-1.51-1h-1.28c-1.53 0-2.77-1.23-2.78-2.76v-9.4h12.16zm-1.08-8.25h-9.94v8.25c0 .91.73 1.64 1.64 1.64h1.3c.76 0 1.48.3 2 .85.52-.55 1.24-.85 2-.85h1.29c.91.03 1.68-.68 1.71-1.59zm-5.07 50.05h3.43v.51h-.1c-1.05 0-1.21.46-1.21 1.1v3.28c0 2.94-2.14 3.49-3.71 3.49-2.37 0-3.88-1.03-3.88-3.04v-3.93c0-.66-.18-.9-.92-.9h-.23v-.51h4.13v.51h-.22a.815.815 0 0 0-.93.68q-.015.105 0 .21v3.93c0 1.6 1.18 2.16 2.39 2.16 1.71 0 2.58-.97 2.58-2.42v-3.21c0-.94-.26-1.36-1.08-1.36h-.24v-.51Zm10.01 7c0 .65.23.78.75.78v.42h-3.11v-.42c.54-.04.75-.41.75-1.49v-1.14c0-1.06-.29-1.46-.82-1.46-.51.05-1 .24-1.4.57v2.68c0 .57.25.84.78.84h.12v.42h-3.33v-.42h.07c.57 0 .75-.24.75-.92v-2.57c0-.29-.16-.46-.62-.57l-.27-.08v-.31l2.28-.77h.25v1.17c.71-.55 1.55-.91 2.44-1.03.96 0 1.39.69 1.39 2.28zm4.53 1.2h-3.29v-.42h.14c.57 0 .74-.24.74-.92v-2.53c0-.34-.08-.43-.45-.57l-.43-.16v-.32l2.25-.75h.24v4.41c0 .57.22.83.8.83zm-.63-7.76c-.04.53-.51.93-1.04.9-.53.05-1-.33-1.05-.86v-.04c.06-.53.52-.92 1.06-.9a.96.96 0 0 1 1.04.86v.04Zm.77 2.38h3.35v.42h-.46c-.27 0-.39.25-.17.74l1.18 2.62 1.03-2.32c.3-.69.14-.95-.78-1.04v-.42h2.62v.42c-.51-.04-.97.29-1.11.79l-1.88 4.26h-.79l-1.96-4.21c-.25-.57-.43-.75-1.02-.82v-.45Zm12.08 3.85a3.65 3.65 0 0 1-2.82 1.67c-1.44 0-2.41-1.11-2.41-2.7a2.78 2.78 0 0 1 2.6-2.96h.23a2.3 2.3 0 0 1 1.66.63c.78.78.41 1.52.87 1.75v.38h-3.65c.11 1.1.84 1.92 1.62 1.92.49 0 .96-.27 1.61-.95l.3.25Zm-1.71-1.74c0-1.02-.37-1.63-.94-1.63s-1.03.7-.94 1.63h1.87Zm6.19 3.27h-3.65v-.42h.09c.54 0 .74-.24.74-.92v-2.15c0-.57-.08-.73-.47-.88l-.35-.14v-.33l2.16-.82h.28v1.47c.49-.95.7-1.33 1.14-1.33.09 0 .18.01.27.04l1.04.38c-.13.5-.35.97-.63 1.4-.34-.15-.7-.26-1.07-.33-.26 0-.49.19-.78.57v2.14c0 .63.2.88.88.88h.34l.02.45Zm2.08-1.56h.43c.15.65.71 1.11 1.37 1.14.35.01.65-.25.69-.61 0-.91-2.48-1.23-2.48-2.82 0-1 .83-1.68 2.07-1.68.51 0 1.01.1 1.48.28l.03 1.41h-.42c-.24-.73-.67-1.14-1.24-1.14-.3-.02-.57.19-.61.5 0 1.08 2.6 1.14 2.6 2.93.03.89-.67 1.63-1.55 1.66h-.16c-.47 0-.94-.07-1.4-.18-.08 0-.15.05-.26.17h-.38l-.15-1.66Zm7.88 1.56h-3.29v-.42h.14c.54 0 .74-.24.74-.92v-2.53c0-.34-.08-.43-.45-.57l-.43-.16v-.32l2.25-.75h.24v4.41c0 .57.22.83.8.83zm-.6-7.76c-.04.53-.51.93-1.04.9-.53.05-1-.33-1.05-.86v-.04c.06-.53.52-.92 1.06-.9a.96.96 0 0 1 1.04.86v.04Zm3.6 6.28c0 .49.22.7.61.7s.62-.2 1-.66l.18.37c-.39.7-1.11 1.16-1.91 1.2-.9 0-1.49-.5-1.49-1.63v-3.16h-.7v-.34c.87-.42 1.55-1.15 1.92-2.03h.38v1.65h1.71l-.2.73H99.9v3.19Zm3.84-2.29c-.46-.95-.69-1.2-1.25-1.2v-.42h3.36v.42c-.69 0-.79.26-.54.79l1.1 2.28 1-2.03c.28-.57.11-1.02-.69-1.03v-.42h2.45v.42c-.57.13-.77.29-1.14 1.04l-2.95 6.01c-.33.66-.74.98-1.2.98-.43.03-.8-.29-.83-.72v-.04c0-.21.06-.41.2-.57.61-.61 1.31.21 2-1.32l.26-.57-1.78-3.63ZM8.93 83.06h3.38v.51h-.09c-1.04 0-1.2.46-1.2 1.08v3.25c0 2.91-2.11 3.46-3.67 3.46-2.35 0-3.84-1.02-3.84-3.01v-3.89c0-.66-.18-.89-.91-.89h-.22v-.51h4.09v.51h-.22a.805.805 0 0 0-.92.68q-.015.105 0 .21v3.89c0 1.59 1.17 2.14 2.36 2.14 1.71 0 2.56-.96 2.56-2.4v-3.17c0-.92-.26-1.35-1.07-1.35h-.23v-.51Zm5.46 6.68c0 .48.22.69.6.69s.61-.19.99-.65l.18.37c-.38.7-1.1 1.15-1.89 1.19-.89 0-1.48-.5-1.48-1.62v-3.13h-.69v-.34a3.92 3.92 0 0 0 1.91-1.98h.38v1.63h1.71l-.19.72h-1.52v3.14Zm6 1.44h-3.63v-.42h.09c.54 0 .73-.23.73-.91v-2.13c0-.57-.07-.71-.47-.87l-.35-.14v-.33l2.14-.81h.28v1.46c.48-.94.69-1.32 1.14-1.32.09 0 .18.01.26.04l1.03.38c-.13.49-.34.96-.62 1.39-.34-.15-.7-.26-1.06-.33-.26 0-.48.18-.77.57v2.12c0 .63.19.87.87.87h.35v.43Zm6.92-1.51c-.62.96-1.65 1.58-2.79 1.66-1.43 0-2.39-1.1-2.39-2.67a2.754 2.754 0 0 1 2.57-2.93h.22c.61-.03 1.21.2 1.65.63.77.77.41 1.5.86 1.71v.38h-3.61c.11 1.08.83 1.91 1.61 1.91.48 0 .95-.27 1.59-.94l.29.27Zm-1.72-1.71c0-1-.37-1.62-.93-1.62s-1.01.69-.92 1.62h1.86Zm8 1.98c-.58.9-1.59 1.43-2.66 1.39-1.42.09-2.65-.99-2.74-2.41v-.18c0-1.71 1.48-3.03 3.39-3.03 1.14 0 1.97.47 1.97 1.11.02.34-.25.64-.59.65h-.08c-.91 0-1.11-1.14-1.86-1.14-.66 0-1.1.8-1.1 1.97 0 1.42.67 2.36 1.63 2.36.67-.04 1.28-.38 1.67-.92l.38.19Zm2.85-.07c0 .82.22.9.68.9h.13v.42h-3.3v-.42h.19c.66 0 .71-.26.71-.95v-5.71c0-.38-.06-.47-.42-.57l-.38-.13v-.3l2.07-.64h.31v4.25c.68-.53 1.49-.87 2.35-.99.96 0 1.43.77 1.43 2.31v1.71c0 .77.09 1.02.57 1.02h.15v.42h-3.08v-.42h.1c.57 0 .67-.21.67-.95v-1.97c0-.7-.33-1.14-.85-1.14-.48.05-.94.22-1.33.5v2.67Zm7.35-.13c0 .48.22.69.57.69s.61-.19.99-.65l.18.37c-.38.7-1.1 1.15-1.89 1.19-.89 0-1.48-.5-1.48-1.62v-3.13h-.66v-.34a3.94 3.94 0 0 0 1.9-1.98h.39v1.63h1.71l-.19.72h-1.52v3.14Z"/></svg>